<svg width="507" height="79" viewBox="0 0 507 79" version="1.1" xmlns="http://www.w3.org/2000/svg" xmlns:xlink="http://www.w3.org/1999/xlink" preserveAspectRatio="xMidYMid meet"><path d="M157.75 16.552c3.56 0 6.795.616 9.74 1.85a22.39 22.39 0 0 1 7.532 5.032c2.105 2.14 3.732 4.7 4.827 7.48 1.147 2.944 1.712 6.077 1.695 9.226a29.08 29.08 0 0 1-.308 4.21l-.616 3.4h-35.7c.9 3.286 2.602 5.768 5.118 7.48 2.533 1.712 5.632 2.568 9.33 2.568a19.86 19.86 0 0 0 7.532-1.386c2.362-.96 4.57-2.225 6.607-3.75l5.632 9.432c-2.8 2.345-5.94 4.228-9.33 5.58-3.355 1.335-6.967 2.003-10.87 2.003-4.04 0-7.754-.685-11.177-2.054-3.286-1.284-6.282-3.2-8.815-5.632a26.08 26.08 0 0 1-5.786-8.405c-1.404-3.218-2.105-6.693-2.105-10.46s.685-7.24 2.054-10.46c2.653-6.368 7.72-11.417 14.105-14.036 3.355-1.404 6.932-2.105 10.527-2.07zm-.514 11.177c-3.013 0-5.597.907-7.788 2.722s-3.697 4.33-4.52 7.532h23.28c-.137-3.286-1.267-5.803-3.4-7.583-2.105-1.78-4.64-2.67-7.583-2.67zM111.45 17.682V47.2c0 3.03-.924 5.375-2.773 7.12s-4.108 2.62-6.76 2.62c-2.74 0-5.032-.873-6.864-2.62s-2.756-4.125-2.773-7.12V17.682H78.533v32.043c0 10.014 6.864 20.044 19.582 20.044 8.028 0 13.317-7.206 13.317-7.206v5.87h13.745v-50.75H111.45zm103.404-.617c1.712 0 3.184.206 4.416.617v12.205h-3.697c-3.97 0-7.206 1.06-9.74 3.184s-3.8 5.46-3.8 10.048v25.316h-13.848V17.682h12.718v6.042c1.626-2.123 3.732-3.817 6.145-4.964 2.448-1.147 5.118-1.712 7.805-1.695zm32.916-.513a27.83 27.83 0 0 1 19.274 7.635 26.57 26.57 0 0 1 5.837 8.353c1.438 3.218 2.157 6.693 2.157 10.46a25.44 25.44 0 0 1-2.157 10.5 25.88 25.88 0 0 1-5.837 8.405c-10.818 10.236-27.73 10.236-38.548 0-2.482-2.38-4.45-5.238-5.786-8.405a26.09 26.09 0 0 1-2.105-10.51c0-3.766.702-7.24 2.105-10.46a25.49 25.49 0 0 1 5.786-8.353 27.71 27.71 0 0 1 8.61-5.58c3.286-1.37 6.847-2.054 10.664-2.054zm0 12.616c-3.903 0-7.052 1.318-9.483 3.937s-3.646 5.957-3.646 9.996 1.215 7.326 3.646 9.894 5.58 3.85 9.483 3.85c1.78.017 3.543-.342 5.17-1.027 1.575-.65 2.978-1.643 4.16-2.876 1.18-1.267 2.123-2.74 2.773-4.348.702-1.746 1.044-3.612 1.027-5.477.017-1.9-.342-3.766-1.027-5.53a13.85 13.85 0 0 0-2.773-4.416 13.18 13.18 0 0 0-4.159-2.927 12.49 12.49 0 0 0-5.17-1.078zM74.357 71.293L63.83 57.565c2.174-2.602 3.97-5.512 5.323-8.627 1.883-4.262 2.824-8.9 2.824-13.9s-.94-9.62-2.824-13.9a35.02 35.02 0 0 0-7.686-11.126C58.18 6.847 54.313 4.33 50.085 2.636 45.737.9 41.08 0 36.083 0h-.205c-4.98 0-9.654.9-14.002 2.67a35.72 35.72 0 0 0-11.383 7.377c-3.27 3.167-5.87 6.95-7.686 11.126C.94 25.436 0 30.075 0 35.056s.94 9.62 2.824 13.9c1.797 4.16 4.4 7.942 7.634 11.126 2.396 2.328 5.118 4.314 8.08 5.854l7.292-10.904c-2.02-.993-3.868-2.328-5.46-3.92a19.9 19.9 0 0 1-4.502-7.018c-1.06-2.74-1.592-5.734-1.592-9.02s.53-6.265 1.592-8.97c2.02-5.3 6.145-9.5 11.383-11.64 2.62-1.095 5.546-1.643 8.764-1.643s6.145.548 8.764 1.643c5.238 2.14 9.363 6.35 11.383 11.64 1.06 2.705 1.592 5.683 1.592 8.97s-.53 6.282-1.592 9.02a19.79 19.79 0 0 1-4.519 7.018c-1.592 1.592-3.44 2.9-5.46 3.92l18.298 23.86 9.877-7.6z" fill="#304ffe"/><circle fill="#ff7e29" transform="matrix(.707107 -.707107 .707107 .707107 -34.054414 43.801237)" cx="35.846" cy="63.008" r="7.668"/><path d="M305.198 69.752c-7.2 0-16.313-1.318-19.993-2.807V2.636h24.392c13.42 0 20.078 6.66 20.078 16.14 0 5.7-3.423 10.955-8.165 13.163 7.9 1.85 14.207 7.977 14.207 16.843 0 12.632-9.996 20.968-30.52 20.968zm5.7-39.832c7.36 0 11.126-4.656 11.126-10.27 0-5.53-3.423-9.996-12.547-9.996h-16.843V29.92h18.264zM305.9 62.734c16.398 0 22.098-6.06 22.098-14.036 0-6.76-5.255-12.273-14.9-12.273H292.65V61.16c2.978.96 8.764 1.575 13.25 1.575h0zm35.912-18.16c0-14.207 10.784-25.18 25.18-25.18 14.72 0 25.35 10.955 25.35 25.18 0 14.378-10.698 25.18-25.35 25.18-14.395 0-25.18-10.8-25.18-25.18zm43.34 0c0-10.698-7.532-18.692-18.16-18.692-10.27 0-18 7.977-18 18.692 0 10.784 7.634 18.692 18 18.692 10.613-.017 18.16-7.908 18.16-18.692zM401.824.017h7.463v68.417h-7.463zm17.51 66.226v-6.76c2.722 2.02 7.9 3.766 13.334 3.766 8.062 0 11.93-3.68 11.93-7.9 0-3.937-2.636-6.23-7.805-8.25l-6.06-2.448c-6.573-2.636-10.613-6.06-10.613-12.187 0-7.275 7.018-13.077 18-13.077 3.937 0 8.336 1.147 10.527 2.448v6.76c-2.636-1.575-6.316-2.722-10.527-2.722-6.402 0-10.613 2.636-10.613 6.573 0 3.338 2.2 4.913 6.487 6.573l5.87 2.362c7.805 3.167 11.76 7.018 11.76 13.78 0 7.463-6.316 14.55-18.863 14.55-5.803.034-10.8-1.558-13.42-3.475zm80.845-6.76c-3.937 6.573-10.698 10.27-18.777 10.27-13.6 0-23.7-10.784-23.7-25.18 0-14.207 10.168-25.18 23.776-25.18 7.634 0 14.036 3.423 18.076 9.38v-8.148h7.104v47.808h-6.487V59.48zm.257-14.995c0-10.613-7.634-18.6-18-18.6-10.168 0-17.545 7.977-17.545 18.692 0 10.784 7.36 18.692 17.545 18.692 10.356-.034 18-8 18-18.795h0z" fill="#304ffe"/></svg>